<?xml version="1.0" encoding="UTF-8" standalone="no"?>
<!DOCTYPE svg PUBLIC "-//W3C//DTD SVG 1.1//EN"
 "http://www.w3.org/Graphics/SVG/1.1/DTD/svg11.dtd">
<!-- Generated by graphviz version 5.0.0 (20220707.1540)
 -->
<!-- Title: dependencies Pages: 1 -->
<svg width="653pt" height="250pt"
 viewBox="0.00 0.00 653.00 249.80" xmlns="http://www.w3.org/2000/svg" xmlns:xlink="http://www.w3.org/1999/xlink">
<g id="graph0" class="graph" transform="scale(1 1) rotate(0) translate(4 245.8)">
<title>dependencies</title>
<polygon fill="white" stroke="transparent" points="-4,4 -4,-245.8 649,-245.8 649,4 -4,4"/>
<text text-anchor="middle" x="322.5" y="-8.2" font-family="sans-serif" font-size="14.00">dependencies</text>
<g id="clust1" class="cluster">
<title>cluster_AppModule</title>
<polygon fill="none" stroke="black" stroke-dasharray="1,5" points="37,-108.8 37,-233.8 420,-233.8 420,-108.8 37,-108.8"/>
</g>
<g id="clust3" class="cluster">
<title>cluster_AppModule_imports</title>
<polygon fill="none" stroke="black" points="183,-116.8 183,-168.8 412,-168.8 412,-116.8 183,-116.8"/>
</g>
<g id="clust6" class="cluster">
<title>cluster_AppModule_providers</title>
<polygon fill="none" stroke="black" points="45,-116.8 45,-168.8 175,-168.8 175,-116.8 45,-116.8"/>
</g>
<g id="clust7" class="cluster">
<title>cluster_ContactModule</title>
<polygon fill="none" stroke="black" stroke-dasharray="1,5" points="8,-32.8 8,-100.8 180,-100.8 180,-32.8 8,-32.8"/>
</g>
<g id="clust12" class="cluster">
<title>cluster_ContactModule_providers</title>
<polygon fill="none" stroke="black" points="16,-40.8 16,-92.8 172,-92.8 172,-40.8 16,-40.8"/>
</g>
<g id="clust13" class="cluster">
<title>cluster_UsersModule</title>
<polygon fill="none" stroke="black" stroke-dasharray="1,5" points="188,-32.8 188,-100.8 637,-100.8 637,-32.8 188,-32.8"/>
</g>
<g id="clust18" class="cluster">
<title>cluster_UsersModule_providers</title>
<polygon fill="none" stroke="black" points="196,-40.8 196,-92.8 629,-92.8 629,-40.8 196,-40.8"/>
</g>
<!-- ContactModule -->
<g id="node1" class="node">
<title>ContactModule</title>
<polygon fill="#8dd3c7" stroke="black" points="294.6,-160.8 291.6,-164.8 270.6,-164.8 267.6,-160.8 191.4,-160.8 191.4,-124.8 294.6,-124.8 294.6,-160.8"/>
<text text-anchor="middle" x="243" y="-138.6" font-family="Times,serif" font-size="14.00">ContactModule</text>
</g>
<!-- AppModule -->
<g id="node3" class="node">
<title>AppModule</title>
<polygon fill="#8dd3c7" stroke="black" points="284.66,-225.8 281.66,-229.8 260.66,-229.8 257.66,-225.8 201.34,-225.8 201.34,-189.8 284.66,-189.8 284.66,-225.8"/>
<text text-anchor="middle" x="243" y="-203.6" font-family="Times,serif" font-size="14.00">AppModule</text>
</g>
<!-- ContactModule&#45;&gt;AppModule -->
<g id="edge1" class="edge">
<title>ContactModule&#45;&gt;AppModule</title>
<path fill="none" stroke="black" d="M243,-160.91C243,-160.91 243,-179.79 243,-179.79"/>
<polygon fill="black" stroke="black" points="239.5,-179.79 243,-189.79 246.5,-179.79 239.5,-179.79"/>
</g>
<!-- UsersModule -->
<g id="node2" class="node">
<title>UsersModule</title>
<polygon fill="#8dd3c7" stroke="black" points="403.94,-160.8 400.94,-164.8 379.94,-164.8 376.94,-160.8 312.06,-160.8 312.06,-124.8 403.94,-124.8 403.94,-160.8"/>
<text text-anchor="middle" x="358" y="-138.6" font-family="Times,serif" font-size="14.00">UsersModule</text>
</g>
<!-- UsersModule&#45;&gt;AppModule -->
<g id="edge2" class="edge">
<title>UsersModule&#45;&gt;AppModule</title>
<path fill="none" stroke="black" d="M358,-160.91C358,-180.14 358,-207.8 358,-207.8 358,-207.8 294.84,-207.8 294.84,-207.8"/>
<polygon fill="black" stroke="black" points="294.84,-204.3 284.84,-207.8 294.84,-211.3 294.84,-204.3"/>
</g>
<!-- AppService -->
<g id="node4" class="node">
<title>AppService</title>
<ellipse fill="#fdb462" stroke="black" cx="110" cy="-142.8" rx="56.75" ry="18"/>
<text text-anchor="middle" x="110" y="-138.6" font-family="Times,serif" font-size="14.00">AppService</text>
</g>
<!-- AppService&#45;&gt;AppModule -->
<g id="edge3" class="edge">
<title>AppService&#45;&gt;AppModule</title>
<path fill="none" stroke="black" d="M110,-160.91C110,-180.14 110,-207.8 110,-207.8 110,-207.8 191.28,-207.8 191.28,-207.8"/>
<polygon fill="black" stroke="black" points="191.28,-211.3 201.28,-207.8 191.28,-204.3 191.28,-211.3"/>
</g>
<!-- ContactService -->
<g id="node5" class="node">
<title>ContactService</title>
<ellipse fill="#fdb462" stroke="black" cx="94" cy="-66.8" rx="70.06" ry="18"/>
<text text-anchor="middle" x="94" y="-62.6" font-family="Times,serif" font-size="14.00">ContactService</text>
</g>
<!-- ContactService&#45;&gt;ContactModule -->
<g id="edge4" class="edge">
<title>ContactService&#45;&gt;ContactModule</title>
<path fill="none" stroke="black" d="M164.05,-66.8C182.69,-66.8 197.73,-66.8 197.73,-66.8 197.73,-66.8 197.73,-114.79 197.73,-114.79"/>
<polygon fill="black" stroke="black" points="194.23,-114.79 197.73,-124.79 201.23,-114.79 194.23,-114.79"/>
</g>
<!-- JwtStrategy -->
<g id="node6" class="node">
<title>JwtStrategy</title>
<ellipse fill="#fdb462" stroke="black" cx="564" cy="-66.8" rx="56.77" ry="18"/>
<text text-anchor="middle" x="564" y="-62.6" font-family="Times,serif" font-size="14.00">JwtStrategy</text>
</g>
<!-- JwtStrategy&#45;&gt;UsersModule -->
<g id="edge5" class="edge">
<title>JwtStrategy&#45;&gt;UsersModule</title>
<path fill="none" stroke="black" d="M564,-84.81C564,-107.29 564,-142.8 564,-142.8 564,-142.8 413.72,-142.8 413.72,-142.8"/>
<polygon fill="black" stroke="black" points="413.72,-139.3 403.72,-142.8 413.72,-146.3 413.72,-139.3"/>
</g>
<!-- UserRepository -->
<g id="node7" class="node">
<title>UserRepository</title>
<ellipse fill="#fdb462" stroke="black" cx="418" cy="-66.8" rx="71.8" ry="18"/>
<text text-anchor="middle" x="418" y="-62.6" font-family="Times,serif" font-size="14.00">UserRepository</text>
</g>
<!-- UserRepository&#45;&gt;UsersModule -->
<g id="edge6" class="edge">
<title>UserRepository&#45;&gt;UsersModule</title>
<path fill="none" stroke="black" d="M375.03,-81.45C375.03,-81.45 375.03,-114.7 375.03,-114.7"/>
<polygon fill="black" stroke="black" points="371.53,-114.7 375.03,-124.7 378.53,-114.7 371.53,-114.7"/>
</g>
<!-- UsersService -->
<g id="node8" class="node">
<title>UsersService</title>
<ellipse fill="#fdb462" stroke="black" cx="266" cy="-66.8" rx="61.97" ry="18"/>
<text text-anchor="middle" x="266" y="-62.6" font-family="Times,serif" font-size="14.00">UsersService</text>
</g>
<!-- UsersService&#45;&gt;UsersModule -->
<g id="edge7" class="edge">
<title>UsersService&#45;&gt;UsersModule</title>
<path fill="none" stroke="black" d="M320.13,-75.82C320.13,-75.82 320.13,-114.54 320.13,-114.54"/>
<polygon fill="black" stroke="black" points="316.63,-114.54 320.13,-124.54 323.63,-114.54 316.63,-114.54"/>
</g>
</g>
</svg>
